<mxfile host="app.diagrams.net" modified="2024-07-11T15:20:44.297Z" agent="Mozilla/5.0 (Windows NT 10.0; Win64; x64) AppleWebKit/537.36 (KHTML, like Gecko) Chrome/125.0.0.0 Safari/537.36" etag="kVnNN7hetwxeiPzuZyGp" version="24.6.4" type="github">
  <diagram name="Страница — 1" id="zTvAvVCCuXwOPAWFWjhM">
    <mxGraphModel dx="1050" dy="1699" grid="1" gridSize="10" guides="1" tooltips="1" connect="1" arrows="1" fold="1" page="1" pageScale="1" pageWidth="827" pageHeight="1169" math="0" shadow="0">
      <root>
        <mxCell id="0" />
        <mxCell id="1" parent="0" />
        <mxCell id="HXTxe-FE0GOiLtLZq4Oo-1" style="edgeStyle=orthogonalEdgeStyle;rounded=0;orthogonalLoop=1;jettySize=auto;html=1;exitX=1;exitY=0.5;exitDx=0;exitDy=0;entryX=0;entryY=0.5;entryDx=0;entryDy=0;" edge="1" parent="1" source="HXTxe-FE0GOiLtLZq4Oo-2" target="HXTxe-FE0GOiLtLZq4Oo-4">
          <mxGeometry relative="1" as="geometry" />
        </mxCell>
        <mxCell id="HXTxe-FE0GOiLtLZq4Oo-2" value="3CardR" style="rounded=1;whiteSpace=wrap;html=1;absoluteArcSize=1;arcSize=14;strokeWidth=2;" vertex="1" parent="1">
          <mxGeometry x="30" y="150" width="100" height="100" as="geometry" />
        </mxCell>
        <mxCell id="HXTxe-FE0GOiLtLZq4Oo-3" style="edgeStyle=orthogonalEdgeStyle;rounded=0;orthogonalLoop=1;jettySize=auto;html=1;exitX=0;exitY=0.75;exitDx=0;exitDy=0;entryX=1;entryY=0.75;entryDx=0;entryDy=0;" edge="1" parent="1" source="HXTxe-FE0GOiLtLZq4Oo-4" target="HXTxe-FE0GOiLtLZq4Oo-2">
          <mxGeometry relative="1" as="geometry" />
        </mxCell>
        <mxCell id="HXTxe-FE0GOiLtLZq4Oo-4" value="Active MQ" style="verticalLabelPosition=bottom;verticalAlign=top;html=1;shape=process;whiteSpace=wrap;rounded=1;size=0.14;arcSize=6;" vertex="1" parent="1">
          <mxGeometry x="180" y="105" width="100" height="170" as="geometry" />
        </mxCell>
        <mxCell id="HXTxe-FE0GOiLtLZq4Oo-5" value="&lt;p style=&quot;line-height: 10%;&quot;&gt;&lt;br&gt;&lt;/p&gt;" style="rounded=1;whiteSpace=wrap;html=1;absoluteArcSize=1;arcSize=14;strokeWidth=2;align=right;" vertex="1" parent="1">
          <mxGeometry x="320" y="-80" width="400" height="455" as="geometry" />
        </mxCell>
        <mxCell id="HXTxe-FE0GOiLtLZq4Oo-6" style="edgeStyle=orthogonalEdgeStyle;rounded=0;orthogonalLoop=1;jettySize=auto;html=1;exitX=1;exitY=0.5;exitDx=0;exitDy=0;entryX=0.07;entryY=0.4;entryDx=0;entryDy=0;entryPerimeter=0;" edge="1" parent="1" source="HXTxe-FE0GOiLtLZq4Oo-21" target="HXTxe-FE0GOiLtLZq4Oo-18">
          <mxGeometry relative="1" as="geometry" />
        </mxCell>
        <mxCell id="HXTxe-FE0GOiLtLZq4Oo-7" style="edgeStyle=orthogonalEdgeStyle;rounded=0;orthogonalLoop=1;jettySize=auto;html=1;exitX=0.004;exitY=0.969;exitDx=0;exitDy=0;entryX=1;entryY=0.75;entryDx=0;entryDy=0;exitPerimeter=0;" edge="1" parent="1" source="HXTxe-FE0GOiLtLZq4Oo-8" target="HXTxe-FE0GOiLtLZq4Oo-4">
          <mxGeometry relative="1" as="geometry" />
        </mxCell>
        <mxCell id="HXTxe-FE0GOiLtLZq4Oo-39" style="edgeStyle=orthogonalEdgeStyle;rounded=0;orthogonalLoop=1;jettySize=auto;html=1;exitX=0;exitY=0.25;exitDx=0;exitDy=0;entryX=1;entryY=0.75;entryDx=0;entryDy=0;" edge="1" parent="1" source="HXTxe-FE0GOiLtLZq4Oo-8" target="HXTxe-FE0GOiLtLZq4Oo-34">
          <mxGeometry relative="1" as="geometry" />
        </mxCell>
        <mxCell id="HXTxe-FE0GOiLtLZq4Oo-8" value="adapter.fns.inn" style="rounded=1;whiteSpace=wrap;html=1;absoluteArcSize=1;arcSize=14;strokeWidth=2;" vertex="1" parent="1">
          <mxGeometry x="470" y="-10" width="100" height="250" as="geometry" />
        </mxCell>
        <mxCell id="HXTxe-FE0GOiLtLZq4Oo-9" value="Kubernetes" style="text;html=1;align=center;verticalAlign=middle;resizable=0;points=[];autosize=1;strokeColor=none;fillColor=none;" vertex="1" parent="1">
          <mxGeometry x="320" y="-110" width="80" height="30" as="geometry" />
        </mxCell>
        <mxCell id="HXTxe-FE0GOiLtLZq4Oo-10" value="redis&lt;div&gt;&lt;br&gt;&lt;div&gt;accessToken&lt;/div&gt;&lt;/div&gt;&lt;div&gt;&lt;br&gt;&lt;/div&gt;" style="strokeWidth=2;html=1;shape=mxgraph.flowchart.database;whiteSpace=wrap;" vertex="1" parent="1">
          <mxGeometry x="340" y="290" width="100" height="60" as="geometry" />
        </mxCell>
        <mxCell id="HXTxe-FE0GOiLtLZq4Oo-11" style="edgeStyle=orthogonalEdgeStyle;rounded=0;orthogonalLoop=1;jettySize=auto;html=1;exitX=0.5;exitY=1;exitDx=0;exitDy=0;entryX=0.5;entryY=0;entryDx=0;entryDy=0;entryPerimeter=0;" edge="1" parent="1" source="HXTxe-FE0GOiLtLZq4Oo-8" target="HXTxe-FE0GOiLtLZq4Oo-10">
          <mxGeometry relative="1" as="geometry" />
        </mxCell>
        <mxCell id="HXTxe-FE0GOiLtLZq4Oo-12" style="edgeStyle=orthogonalEdgeStyle;rounded=0;orthogonalLoop=1;jettySize=auto;html=1;exitX=0.5;exitY=1;exitDx=0;exitDy=0;exitPerimeter=0;entryX=1;entryY=0.25;entryDx=0;entryDy=0;" edge="1" parent="1" source="HXTxe-FE0GOiLtLZq4Oo-13" target="HXTxe-FE0GOiLtLZq4Oo-8">
          <mxGeometry relative="1" as="geometry" />
        </mxCell>
        <mxCell id="HXTxe-FE0GOiLtLZq4Oo-13" value="store" style="strokeWidth=2;html=1;shape=mxgraph.flowchart.direct_data;whiteSpace=wrap;" vertex="1" parent="1">
          <mxGeometry x="610" y="-62" width="100" height="60" as="geometry" />
        </mxCell>
        <mxCell id="HXTxe-FE0GOiLtLZq4Oo-14" value="GetRequestID" style="text;html=1;align=center;verticalAlign=middle;resizable=0;points=[];autosize=1;strokeColor=none;fillColor=none;rotation=0;" vertex="1" parent="1">
          <mxGeometry x="560" y="30" width="100" height="30" as="geometry" />
        </mxCell>
        <mxCell id="HXTxe-FE0GOiLtLZq4Oo-15" style="edgeStyle=orthogonalEdgeStyle;rounded=0;orthogonalLoop=1;jettySize=auto;html=1;exitX=0.5;exitY=0;exitDx=0;exitDy=0;entryX=0;entryY=0.5;entryDx=0;entryDy=0;entryPerimeter=0;" edge="1" parent="1" source="HXTxe-FE0GOiLtLZq4Oo-8" target="HXTxe-FE0GOiLtLZq4Oo-13">
          <mxGeometry relative="1" as="geometry" />
        </mxCell>
        <mxCell id="HXTxe-FE0GOiLtLZq4Oo-16" value="requestId" style="text;html=1;align=center;verticalAlign=middle;resizable=0;points=[];autosize=1;strokeColor=none;fillColor=none;" vertex="1" parent="1">
          <mxGeometry x="530" y="-37" width="70" height="30" as="geometry" />
        </mxCell>
        <mxCell id="HXTxe-FE0GOiLtLZq4Oo-17" style="edgeStyle=orthogonalEdgeStyle;rounded=0;orthogonalLoop=1;jettySize=auto;html=1;exitX=1;exitY=0.5;exitDx=0;exitDy=0;shadow=0;textShadow=0;entryX=0.012;entryY=0.802;entryDx=0;entryDy=0;entryPerimeter=0;" edge="1" parent="1" source="HXTxe-FE0GOiLtLZq4Oo-4" target="HXTxe-FE0GOiLtLZq4Oo-8">
          <mxGeometry relative="1" as="geometry" />
        </mxCell>
        <mxCell id="HXTxe-FE0GOiLtLZq4Oo-18" value="FNS" style="ellipse;shape=cloud;whiteSpace=wrap;html=1;align=center;" vertex="1" parent="1">
          <mxGeometry x="720" y="153" width="190" height="87" as="geometry" />
        </mxCell>
        <mxCell id="HXTxe-FE0GOiLtLZq4Oo-19" style="edgeStyle=orthogonalEdgeStyle;rounded=0;orthogonalLoop=1;jettySize=auto;html=1;entryX=0.13;entryY=0.77;entryDx=0;entryDy=0;entryPerimeter=0;exitX=1;exitY=0.593;exitDx=0;exitDy=0;exitPerimeter=0;" edge="1" parent="1" source="HXTxe-FE0GOiLtLZq4Oo-23" target="HXTxe-FE0GOiLtLZq4Oo-18">
          <mxGeometry relative="1" as="geometry">
            <mxPoint x="580" y="220" as="sourcePoint" />
            <Array as="points" />
          </mxGeometry>
        </mxCell>
        <mxCell id="HXTxe-FE0GOiLtLZq4Oo-20" value="" style="edgeStyle=orthogonalEdgeStyle;rounded=0;orthogonalLoop=1;jettySize=auto;html=1;exitX=0.98;exitY=0.783;exitDx=0;exitDy=0;entryX=-0.029;entryY=0.5;entryDx=0;entryDy=0;entryPerimeter=0;exitPerimeter=0;" edge="1" parent="1" source="HXTxe-FE0GOiLtLZq4Oo-8" target="HXTxe-FE0GOiLtLZq4Oo-21">
          <mxGeometry relative="1" as="geometry">
            <mxPoint x="440" y="190" as="sourcePoint" />
            <mxPoint x="707" y="190" as="targetPoint" />
          </mxGeometry>
        </mxCell>
        <mxCell id="HXTxe-FE0GOiLtLZq4Oo-21" value="Request" style="text;html=1;align=center;verticalAlign=middle;resizable=0;points=[];autosize=1;strokeColor=none;fillColor=none;" vertex="1" parent="1">
          <mxGeometry x="590" y="170" width="70" height="30" as="geometry" />
        </mxCell>
        <mxCell id="HXTxe-FE0GOiLtLZq4Oo-22" value="" style="edgeStyle=orthogonalEdgeStyle;rounded=0;orthogonalLoop=1;jettySize=auto;html=1;entryX=0.011;entryY=0.58;entryDx=0;entryDy=0;entryPerimeter=0;exitX=1.004;exitY=0.969;exitDx=0;exitDy=0;exitPerimeter=0;" edge="1" parent="1" source="HXTxe-FE0GOiLtLZq4Oo-8" target="HXTxe-FE0GOiLtLZq4Oo-23">
          <mxGeometry relative="1" as="geometry">
            <mxPoint x="440" y="178" as="sourcePoint" />
            <mxPoint x="745" y="220" as="targetPoint" />
            <Array as="points" />
          </mxGeometry>
        </mxCell>
        <mxCell id="HXTxe-FE0GOiLtLZq4Oo-23" value="Response" style="text;html=1;align=center;verticalAlign=middle;resizable=0;points=[];autosize=1;strokeColor=none;fillColor=none;" vertex="1" parent="1">
          <mxGeometry x="610" y="210" width="80" height="30" as="geometry" />
        </mxCell>
        <mxCell id="HXTxe-FE0GOiLtLZq4Oo-24" value="1" style="text;html=1;align=center;verticalAlign=middle;resizable=0;points=[];autosize=1;strokeColor=#d79b00;fillColor=#ffe6cc;" vertex="1" parent="1">
          <mxGeometry x="215" y="-20" width="30" height="30" as="geometry" />
        </mxCell>
        <mxCell id="HXTxe-FE0GOiLtLZq4Oo-25" value="2" style="text;html=1;align=center;verticalAlign=middle;resizable=0;points=[];autosize=1;strokeColor=#d79b00;fillColor=#ffe6cc;" vertex="1" parent="1">
          <mxGeometry x="285" y="158" width="30" height="30" as="geometry" />
        </mxCell>
        <mxCell id="HXTxe-FE0GOiLtLZq4Oo-26" value="3" style="text;html=1;align=center;verticalAlign=middle;resizable=0;points=[];autosize=1;strokeColor=#d79b00;fillColor=#ffe6cc;" vertex="1" parent="1">
          <mxGeometry x="685" y="157" width="30" height="30" as="geometry" />
        </mxCell>
        <mxCell id="HXTxe-FE0GOiLtLZq4Oo-27" value="4" style="text;html=1;align=center;verticalAlign=middle;resizable=0;points=[];autosize=1;strokeColor=#d79b00;fillColor=#ffe6cc;" vertex="1" parent="1">
          <mxGeometry x="540" y="-62" width="30" height="30" as="geometry" />
        </mxCell>
        <mxCell id="HXTxe-FE0GOiLtLZq4Oo-28" value="5" style="text;html=1;align=center;verticalAlign=middle;resizable=0;points=[];autosize=1;strokeColor=#d79b00;fillColor=#ffe6cc;" vertex="1" parent="1">
          <mxGeometry x="660" y="18" width="30" height="30" as="geometry" />
        </mxCell>
        <mxCell id="HXTxe-FE0GOiLtLZq4Oo-29" value="6" style="text;html=1;align=center;verticalAlign=middle;resizable=0;points=[];autosize=1;strokeColor=#d79b00;fillColor=#ffe6cc;" vertex="1" parent="1">
          <mxGeometry x="685" y="220" width="30" height="30" as="geometry" />
        </mxCell>
        <mxCell id="HXTxe-FE0GOiLtLZq4Oo-30" value="7" style="text;html=1;align=center;verticalAlign=middle;resizable=0;points=[];autosize=1;strokeColor=#d79b00;fillColor=#ffe6cc;" vertex="1" parent="1">
          <mxGeometry x="285" y="240" width="30" height="30" as="geometry" />
        </mxCell>
        <mxCell id="HXTxe-FE0GOiLtLZq4Oo-31" value="8" style="text;html=1;align=center;verticalAlign=middle;resizable=0;points=[];autosize=1;strokeColor=#d79b00;fillColor=#ffe6cc;" vertex="1" parent="1">
          <mxGeometry x="140" y="240" width="30" height="30" as="geometry" />
        </mxCell>
        <mxCell id="HXTxe-FE0GOiLtLZq4Oo-35" style="edgeStyle=orthogonalEdgeStyle;rounded=0;orthogonalLoop=1;jettySize=auto;html=1;exitX=1;exitY=0.25;exitDx=0;exitDy=0;entryX=0;entryY=0.25;entryDx=0;entryDy=0;" edge="1" parent="1" source="HXTxe-FE0GOiLtLZq4Oo-33" target="HXTxe-FE0GOiLtLZq4Oo-34">
          <mxGeometry relative="1" as="geometry" />
        </mxCell>
        <mxCell id="HXTxe-FE0GOiLtLZq4Oo-33" value="Emla" style="rounded=1;whiteSpace=wrap;html=1;absoluteArcSize=1;arcSize=14;strokeWidth=2;" vertex="1" parent="1">
          <mxGeometry x="50" y="-10" width="100" height="100" as="geometry" />
        </mxCell>
        <mxCell id="HXTxe-FE0GOiLtLZq4Oo-40" style="edgeStyle=orthogonalEdgeStyle;rounded=0;orthogonalLoop=1;jettySize=auto;html=1;exitX=0;exitY=0.75;exitDx=0;exitDy=0;entryX=1;entryY=0.75;entryDx=0;entryDy=0;" edge="1" parent="1" source="HXTxe-FE0GOiLtLZq4Oo-34" target="HXTxe-FE0GOiLtLZq4Oo-33">
          <mxGeometry relative="1" as="geometry" />
        </mxCell>
        <mxCell id="HXTxe-FE0GOiLtLZq4Oo-34" value="APISIX" style="rounded=1;whiteSpace=wrap;html=1;absoluteArcSize=1;arcSize=14;strokeWidth=2;" vertex="1" parent="1">
          <mxGeometry x="330" y="-7" width="100" height="80" as="geometry" />
        </mxCell>
        <mxCell id="HXTxe-FE0GOiLtLZq4Oo-38" style="edgeStyle=orthogonalEdgeStyle;rounded=0;orthogonalLoop=1;jettySize=auto;html=1;exitX=1;exitY=0.25;exitDx=0;exitDy=0;entryX=0.012;entryY=0.092;entryDx=0;entryDy=0;entryPerimeter=0;" edge="1" parent="1" source="HXTxe-FE0GOiLtLZq4Oo-34" target="HXTxe-FE0GOiLtLZq4Oo-8">
          <mxGeometry relative="1" as="geometry" />
        </mxCell>
        <mxCell id="HXTxe-FE0GOiLtLZq4Oo-41" value="1" style="text;html=1;align=center;verticalAlign=middle;resizable=0;points=[];autosize=1;strokeColor=#d79b00;fillColor=#ffe6cc;" vertex="1" parent="1">
          <mxGeometry x="140" y="157" width="30" height="30" as="geometry" />
        </mxCell>
        <mxCell id="HXTxe-FE0GOiLtLZq4Oo-43" value="2" style="text;html=1;align=center;verticalAlign=middle;resizable=0;points=[];autosize=1;strokeColor=#d79b00;fillColor=#ffe6cc;" vertex="1" parent="1">
          <mxGeometry x="433" y="-20" width="30" height="30" as="geometry" />
        </mxCell>
        <mxCell id="HXTxe-FE0GOiLtLZq4Oo-44" value="8" style="text;html=1;align=center;verticalAlign=middle;resizable=0;points=[];autosize=1;strokeColor=#d79b00;fillColor=#ffe6cc;" vertex="1" parent="1">
          <mxGeometry x="200" y="30" width="30" height="30" as="geometry" />
        </mxCell>
        <mxCell id="HXTxe-FE0GOiLtLZq4Oo-45" value="7" style="text;html=1;align=center;verticalAlign=middle;resizable=0;points=[];autosize=1;strokeColor=#d79b00;fillColor=#ffe6cc;" vertex="1" parent="1">
          <mxGeometry x="435" y="57" width="30" height="30" as="geometry" />
        </mxCell>
      </root>
    </mxGraphModel>
  </diagram>
</mxfile>
